<mxfile host="app.diagrams.net" modified="2023-05-26T08:45:38.557Z" agent="Mozilla/5.0 (Windows NT 10.0; Win64; x64) AppleWebKit/537.36 (KHTML, like Gecko) Chrome/113.0.0.0 Safari/537.36" etag="LLqSGKZGySoMyAkxu74g" version="21.3.4" type="github">
  <diagram name="Page-1" id="2YBvvXClWsGukQMizWep">
    <mxGraphModel dx="1157" dy="614" grid="1" gridSize="10" guides="1" tooltips="1" connect="1" arrows="1" fold="1" page="1" pageScale="1" pageWidth="850" pageHeight="1100" math="0" shadow="0">
      <root>
        <mxCell id="0" />
        <mxCell id="1" parent="0" />
        <mxCell id="aM9ryv3xv72pqoxQDRHE-1" value="ORC Protocol&lt;br&gt;Contract" style="shape=umlLifeline;perimeter=lifelinePerimeter;whiteSpace=wrap;html=1;container=0;dropTarget=0;collapsible=0;recursiveResize=0;outlineConnect=0;portConstraint=eastwest;newEdgeStyle={&quot;edgeStyle&quot;:&quot;elbowEdgeStyle&quot;,&quot;elbow&quot;:&quot;vertical&quot;,&quot;curved&quot;:0,&quot;rounded&quot;:0};rounded=1;" parent="1" vertex="1">
          <mxGeometry x="305" y="40" width="100" height="480" as="geometry" />
        </mxCell>
        <mxCell id="aM9ryv3xv72pqoxQDRHE-2" value="" style="html=1;points=[];perimeter=orthogonalPerimeter;outlineConnect=0;targetShapes=umlLifeline;portConstraint=eastwest;newEdgeStyle={&quot;edgeStyle&quot;:&quot;elbowEdgeStyle&quot;,&quot;elbow&quot;:&quot;vertical&quot;,&quot;curved&quot;:0,&quot;rounded&quot;:0};" parent="aM9ryv3xv72pqoxQDRHE-1" vertex="1">
          <mxGeometry x="45" y="70" width="10" height="60" as="geometry" />
        </mxCell>
        <mxCell id="aM9ryv3xv72pqoxQDRHE-3" value="Pay gas, about 10 USD" style="html=1;verticalAlign=bottom;startArrow=oval;endArrow=block;startSize=8;edgeStyle=elbowEdgeStyle;elbow=vertical;curved=0;rounded=0;" parent="aM9ryv3xv72pqoxQDRHE-1" target="aM9ryv3xv72pqoxQDRHE-2" edge="1">
          <mxGeometry relative="1" as="geometry">
            <mxPoint x="-115" y="70" as="sourcePoint" />
          </mxGeometry>
        </mxCell>
        <mxCell id="aM9ryv3xv72pqoxQDRHE-4" value="" style="html=1;points=[];perimeter=orthogonalPerimeter;outlineConnect=0;targetShapes=umlLifeline;portConstraint=eastwest;newEdgeStyle={&quot;edgeStyle&quot;:&quot;elbowEdgeStyle&quot;,&quot;elbow&quot;:&quot;vertical&quot;,&quot;curved&quot;:0,&quot;rounded&quot;:0};" parent="aM9ryv3xv72pqoxQDRHE-1" vertex="1">
          <mxGeometry x="50" y="80" width="10" height="40" as="geometry" />
        </mxCell>
        <mxCell id="1U8vfC9J4nU1YjwcskP8-6" value="" style="edgeStyle=elbowEdgeStyle;rounded=0;orthogonalLoop=1;jettySize=auto;html=1;elbow=vertical;curved=0;" parent="aM9ryv3xv72pqoxQDRHE-1" source="aM9ryv3xv72pqoxQDRHE-4" target="aM9ryv3xv72pqoxQDRHE-4" edge="1">
          <mxGeometry relative="1" as="geometry">
            <Array as="points">
              <mxPoint x="115" y="100" />
            </Array>
          </mxGeometry>
        </mxCell>
        <mxCell id="1U8vfC9J4nU1YjwcskP8-7" value="Deposit into vault" style="edgeLabel;html=1;align=center;verticalAlign=middle;resizable=0;points=[];" parent="1U8vfC9J4nU1YjwcskP8-6" vertex="1" connectable="0">
          <mxGeometry x="0.0238" relative="1" as="geometry">
            <mxPoint x="5" y="-1" as="offset" />
          </mxGeometry>
        </mxCell>
        <mxCell id="aM9ryv3xv72pqoxQDRHE-5" value="Verification tx Programs" style="shape=umlLifeline;perimeter=lifelinePerimeter;whiteSpace=wrap;html=1;container=0;dropTarget=0;collapsible=0;recursiveResize=0;outlineConnect=0;portConstraint=eastwest;newEdgeStyle={&quot;edgeStyle&quot;:&quot;elbowEdgeStyle&quot;,&quot;elbow&quot;:&quot;vertical&quot;,&quot;curved&quot;:0,&quot;rounded&quot;:0};rounded=1;" parent="1" vertex="1">
          <mxGeometry x="560" y="40" width="100" height="480" as="geometry" />
        </mxCell>
        <mxCell id="aM9ryv3xv72pqoxQDRHE-6" value="" style="html=1;points=[];perimeter=orthogonalPerimeter;outlineConnect=0;targetShapes=umlLifeline;portConstraint=eastwest;newEdgeStyle={&quot;edgeStyle&quot;:&quot;elbowEdgeStyle&quot;,&quot;elbow&quot;:&quot;vertical&quot;,&quot;curved&quot;:0,&quot;rounded&quot;:0};" parent="aM9ryv3xv72pqoxQDRHE-5" vertex="1">
          <mxGeometry x="45" y="200" width="10" height="160" as="geometry" />
        </mxCell>
        <mxCell id="1U8vfC9J4nU1YjwcskP8-18" value="" style="html=1;points=[];perimeter=orthogonalPerimeter;outlineConnect=0;targetShapes=umlLifeline;portConstraint=eastwest;newEdgeStyle={&quot;edgeStyle&quot;:&quot;elbowEdgeStyle&quot;,&quot;elbow&quot;:&quot;vertical&quot;,&quot;curved&quot;:0,&quot;rounded&quot;:0};" parent="aM9ryv3xv72pqoxQDRHE-5" vertex="1">
          <mxGeometry x="50" y="230" width="10" height="40" as="geometry" />
        </mxCell>
        <mxCell id="1U8vfC9J4nU1YjwcskP8-22" value="" style="html=1;points=[];perimeter=orthogonalPerimeter;outlineConnect=0;targetShapes=umlLifeline;portConstraint=eastwest;newEdgeStyle={&quot;edgeStyle&quot;:&quot;elbowEdgeStyle&quot;,&quot;elbow&quot;:&quot;vertical&quot;,&quot;curved&quot;:0,&quot;rounded&quot;:0};" parent="aM9ryv3xv72pqoxQDRHE-5" vertex="1">
          <mxGeometry x="50" y="300" width="10" height="40" as="geometry" />
        </mxCell>
        <mxCell id="1U8vfC9J4nU1YjwcskP8-1" value="User" style="shape=umlActor;verticalLabelPosition=bottom;verticalAlign=top;html=1;outlineConnect=0;" parent="1" vertex="1">
          <mxGeometry x="180" y="40" width="15" height="30" as="geometry" />
        </mxCell>
        <mxCell id="1U8vfC9J4nU1YjwcskP8-2" value="Automated Programs" style="shape=umlLifeline;perimeter=lifelinePerimeter;whiteSpace=wrap;html=1;container=0;dropTarget=0;collapsible=0;recursiveResize=0;outlineConnect=0;portConstraint=eastwest;newEdgeStyle={&quot;edgeStyle&quot;:&quot;elbowEdgeStyle&quot;,&quot;elbow&quot;:&quot;vertical&quot;,&quot;curved&quot;:0,&quot;rounded&quot;:0};rounded=1;" parent="1" vertex="1">
          <mxGeometry x="720" y="40" width="100" height="480" as="geometry" />
        </mxCell>
        <mxCell id="1U8vfC9J4nU1YjwcskP8-4" value="" style="endArrow=none;dashed=1;html=1;rounded=0;" parent="1" edge="1">
          <mxGeometry width="50" height="50" relative="1" as="geometry">
            <mxPoint x="190" y="520" as="sourcePoint" />
            <mxPoint x="190" y="90" as="targetPoint" />
          </mxGeometry>
        </mxCell>
        <mxCell id="1U8vfC9J4nU1YjwcskP8-8" value="Blockchain&lt;br&gt;Explorer" style="shape=umlLifeline;perimeter=lifelinePerimeter;whiteSpace=wrap;html=1;container=0;dropTarget=0;collapsible=0;recursiveResize=0;outlineConnect=0;portConstraint=eastwest;newEdgeStyle={&quot;edgeStyle&quot;:&quot;elbowEdgeStyle&quot;,&quot;elbow&quot;:&quot;vertical&quot;,&quot;curved&quot;:0,&quot;rounded&quot;:0};rounded=1;" parent="1" vertex="1">
          <mxGeometry x="430" y="40" width="100" height="480" as="geometry" />
        </mxCell>
        <mxCell id="1U8vfC9J4nU1YjwcskP8-9" value="" style="html=1;points=[];perimeter=orthogonalPerimeter;outlineConnect=0;targetShapes=umlLifeline;portConstraint=eastwest;newEdgeStyle={&quot;edgeStyle&quot;:&quot;elbowEdgeStyle&quot;,&quot;elbow&quot;:&quot;vertical&quot;,&quot;curved&quot;:0,&quot;rounded&quot;:0};" parent="1U8vfC9J4nU1YjwcskP8-8" vertex="1">
          <mxGeometry x="45" y="140" width="10" height="40" as="geometry" />
        </mxCell>
        <mxCell id="1U8vfC9J4nU1YjwcskP8-19" value="" style="html=1;points=[];perimeter=orthogonalPerimeter;outlineConnect=0;targetShapes=umlLifeline;portConstraint=eastwest;newEdgeStyle={&quot;edgeStyle&quot;:&quot;elbowEdgeStyle&quot;,&quot;elbow&quot;:&quot;vertical&quot;,&quot;curved&quot;:0,&quot;rounded&quot;:0};" parent="1U8vfC9J4nU1YjwcskP8-8" vertex="1">
          <mxGeometry x="45" y="230" width="10" height="40" as="geometry" />
        </mxCell>
        <mxCell id="1U8vfC9J4nU1YjwcskP8-10" value="" style="endArrow=block;html=1;rounded=0;endFill=1;" parent="1" target="1U8vfC9J4nU1YjwcskP8-9" edge="1">
          <mxGeometry width="50" height="50" relative="1" as="geometry">
            <mxPoint x="190" y="190" as="sourcePoint" />
            <mxPoint x="470" y="190" as="targetPoint" />
          </mxGeometry>
        </mxCell>
        <mxCell id="1U8vfC9J4nU1YjwcskP8-11" value="Check tx(transaction) status" style="edgeLabel;html=1;align=center;verticalAlign=middle;resizable=0;points=[];" parent="1U8vfC9J4nU1YjwcskP8-10" vertex="1" connectable="0">
          <mxGeometry relative="1" as="geometry">
            <mxPoint as="offset" />
          </mxGeometry>
        </mxCell>
        <mxCell id="1U8vfC9J4nU1YjwcskP8-12" value="" style="endArrow=block;html=1;rounded=0;endFill=1;dashed=1;" parent="1" edge="1">
          <mxGeometry width="50" height="50" relative="1" as="geometry">
            <mxPoint x="485" y="305" as="sourcePoint" />
            <mxPoint x="610" y="305" as="targetPoint" />
          </mxGeometry>
        </mxCell>
        <mxCell id="1U8vfC9J4nU1YjwcskP8-13" value="Tx are confirmed" style="edgeLabel;html=1;align=center;verticalAlign=middle;resizable=0;points=[];" parent="1U8vfC9J4nU1YjwcskP8-12" vertex="1" connectable="0">
          <mxGeometry relative="1" as="geometry">
            <mxPoint x="-7" as="offset" />
          </mxGeometry>
        </mxCell>
        <mxCell id="1U8vfC9J4nU1YjwcskP8-14" value="" style="endArrow=block;html=1;rounded=0;endFill=1;" parent="1" target="aM9ryv3xv72pqoxQDRHE-6" edge="1">
          <mxGeometry width="50" height="50" relative="1" as="geometry">
            <mxPoint x="190" y="250" as="sourcePoint" />
            <mxPoint x="600" y="250" as="targetPoint" />
          </mxGeometry>
        </mxCell>
        <mxCell id="1U8vfC9J4nU1YjwcskP8-15" value="Input bitcoin addr to form, send a verification tx" style="edgeLabel;html=1;align=center;verticalAlign=middle;resizable=0;points=[];" parent="1U8vfC9J4nU1YjwcskP8-14" vertex="1" connectable="0">
          <mxGeometry relative="1" as="geometry">
            <mxPoint as="offset" />
          </mxGeometry>
        </mxCell>
        <mxCell id="1U8vfC9J4nU1YjwcskP8-16" value="" style="endArrow=block;html=1;rounded=0;endFill=1;dashed=1;" parent="1" source="aM9ryv3xv72pqoxQDRHE-6" edge="1">
          <mxGeometry width="50" height="50" relative="1" as="geometry">
            <mxPoint x="485" y="220" as="sourcePoint" />
            <mxPoint x="190" y="330" as="targetPoint" />
          </mxGeometry>
        </mxCell>
        <mxCell id="1U8vfC9J4nU1YjwcskP8-17" value="Tx verification success, email notification" style="edgeLabel;html=1;align=center;verticalAlign=middle;resizable=0;points=[];" parent="1U8vfC9J4nU1YjwcskP8-16" vertex="1" connectable="0">
          <mxGeometry relative="1" as="geometry">
            <mxPoint as="offset" />
          </mxGeometry>
        </mxCell>
        <mxCell id="1U8vfC9J4nU1YjwcskP8-20" value="" style="edgeStyle=elbowEdgeStyle;rounded=0;orthogonalLoop=1;jettySize=auto;html=1;elbow=vertical;curved=0;" parent="1" source="1U8vfC9J4nU1YjwcskP8-18" target="1U8vfC9J4nU1YjwcskP8-19" edge="1">
          <mxGeometry relative="1" as="geometry">
            <mxPoint x="530" y="210" as="sourcePoint" />
            <mxPoint x="530" y="230" as="targetPoint" />
            <Array as="points">
              <mxPoint x="490" y="280" />
              <mxPoint x="585" y="220" />
            </Array>
          </mxGeometry>
        </mxCell>
        <mxCell id="1U8vfC9J4nU1YjwcskP8-21" value="Check tx status" style="edgeLabel;html=1;align=center;verticalAlign=middle;resizable=0;points=[];" parent="1U8vfC9J4nU1YjwcskP8-20" vertex="1" connectable="0">
          <mxGeometry x="0.0238" relative="1" as="geometry">
            <mxPoint x="5" y="-1" as="offset" />
          </mxGeometry>
        </mxCell>
        <mxCell id="1U8vfC9J4nU1YjwcskP8-25" style="edgeStyle=elbowEdgeStyle;rounded=0;orthogonalLoop=1;jettySize=auto;html=1;elbow=vertical;curved=0;entryX=-0.018;entryY=0.097;entryDx=0;entryDy=0;entryPerimeter=0;" parent="1" source="1U8vfC9J4nU1YjwcskP8-22" target="1U8vfC9J4nU1YjwcskP8-3" edge="1">
          <mxGeometry relative="1" as="geometry">
            <mxPoint x="740" y="350" as="targetPoint" />
          </mxGeometry>
        </mxCell>
        <mxCell id="1U8vfC9J4nU1YjwcskP8-26" value="Add to inscription queue" style="edgeLabel;html=1;align=center;verticalAlign=middle;resizable=0;points=[];" parent="1U8vfC9J4nU1YjwcskP8-25" vertex="1" connectable="0">
          <mxGeometry relative="1" as="geometry">
            <mxPoint x="-2" as="offset" />
          </mxGeometry>
        </mxCell>
        <mxCell id="1U8vfC9J4nU1YjwcskP8-32" style="edgeStyle=elbowEdgeStyle;rounded=0;orthogonalLoop=1;jettySize=auto;html=1;elbow=vertical;curved=0;dashed=1;" parent="1" source="1U8vfC9J4nU1YjwcskP8-3" edge="1">
          <mxGeometry relative="1" as="geometry">
            <mxPoint x="190" y="430" as="targetPoint" />
            <Array as="points">
              <mxPoint x="670" y="430" />
            </Array>
          </mxGeometry>
        </mxCell>
        <mxCell id="1U8vfC9J4nU1YjwcskP8-33" value="Email notification: Inscription allocation successful" style="edgeLabel;html=1;align=center;verticalAlign=middle;resizable=0;points=[];" parent="1U8vfC9J4nU1YjwcskP8-32" vertex="1" connectable="0">
          <mxGeometry x="-0.0037" y="-1" relative="1" as="geometry">
            <mxPoint as="offset" />
          </mxGeometry>
        </mxCell>
        <mxCell id="1U8vfC9J4nU1YjwcskP8-3" value="" style="html=1;points=[];perimeter=orthogonalPerimeter;outlineConnect=0;targetShapes=umlLifeline;portConstraint=eastwest;newEdgeStyle={&quot;edgeStyle&quot;:&quot;elbowEdgeStyle&quot;,&quot;elbow&quot;:&quot;vertical&quot;,&quot;curved&quot;:0,&quot;rounded&quot;:0};" parent="1" vertex="1">
          <mxGeometry x="765" y="340" width="10" height="100" as="geometry" />
        </mxCell>
        <mxCell id="1U8vfC9J4nU1YjwcskP8-27" value="" style="html=1;points=[];perimeter=orthogonalPerimeter;outlineConnect=0;targetShapes=umlLifeline;portConstraint=eastwest;newEdgeStyle={&quot;edgeStyle&quot;:&quot;elbowEdgeStyle&quot;,&quot;elbow&quot;:&quot;vertical&quot;,&quot;curved&quot;:0,&quot;rounded&quot;:0};" parent="1" vertex="1">
          <mxGeometry x="770" y="360" width="10" height="60" as="geometry" />
        </mxCell>
        <mxCell id="1U8vfC9J4nU1YjwcskP8-30" value="" style="endArrow=classic;html=1;rounded=0;" parent="1" source="1U8vfC9J4nU1YjwcskP8-27" target="1U8vfC9J4nU1YjwcskP8-27" edge="1">
          <mxGeometry width="50" height="50" relative="1" as="geometry">
            <mxPoint x="810" y="370" as="sourcePoint" />
            <mxPoint x="860" y="320" as="targetPoint" />
            <Array as="points">
              <mxPoint x="840" y="370" />
              <mxPoint x="840" y="390" />
              <mxPoint x="840" y="410" />
            </Array>
          </mxGeometry>
        </mxCell>
        <mxCell id="1U8vfC9J4nU1YjwcskP8-31" value="Allocate inscriptions" style="edgeLabel;html=1;align=center;verticalAlign=middle;resizable=0;points=[];" parent="1U8vfC9J4nU1YjwcskP8-30" vertex="1" connectable="0">
          <mxGeometry x="0.0497" relative="1" as="geometry">
            <mxPoint x="-10" y="-4" as="offset" />
          </mxGeometry>
        </mxCell>
        <mxCell id="1U8vfC9J4nU1YjwcskP8-34" value="" style="endArrow=block;html=1;rounded=0;endFill=1;dashed=1;" parent="1" source="1U8vfC9J4nU1YjwcskP8-9" edge="1">
          <mxGeometry width="50" height="50" relative="1" as="geometry">
            <mxPoint x="495" y="315" as="sourcePoint" />
            <mxPoint x="190" y="210" as="targetPoint" />
          </mxGeometry>
        </mxCell>
        <mxCell id="1U8vfC9J4nU1YjwcskP8-35" value="Tx are confirmed" style="edgeLabel;html=1;align=center;verticalAlign=middle;resizable=0;points=[];" parent="1U8vfC9J4nU1YjwcskP8-34" vertex="1" connectable="0">
          <mxGeometry relative="1" as="geometry">
            <mxPoint x="-7" as="offset" />
          </mxGeometry>
        </mxCell>
        <mxCell id="1U8vfC9J4nU1YjwcskP8-36" value="Bitcoin&lt;br&gt;Wallet" style="shape=umlLifeline;perimeter=lifelinePerimeter;whiteSpace=wrap;html=1;container=0;dropTarget=0;collapsible=0;recursiveResize=0;outlineConnect=0;portConstraint=eastwest;newEdgeStyle={&quot;edgeStyle&quot;:&quot;elbowEdgeStyle&quot;,&quot;elbow&quot;:&quot;vertical&quot;,&quot;curved&quot;:0,&quot;rounded&quot;:0};rounded=1;" parent="1" vertex="1">
          <mxGeometry x="840" y="40" width="100" height="500" as="geometry" />
        </mxCell>
        <mxCell id="1U8vfC9J4nU1YjwcskP8-39" value="" style="html=1;points=[];perimeter=orthogonalPerimeter;outlineConnect=0;targetShapes=umlLifeline;portConstraint=eastwest;newEdgeStyle={&quot;edgeStyle&quot;:&quot;elbowEdgeStyle&quot;,&quot;elbow&quot;:&quot;vertical&quot;,&quot;curved&quot;:0,&quot;rounded&quot;:0};" parent="1U8vfC9J4nU1YjwcskP8-36" vertex="1">
          <mxGeometry x="45" y="420" width="10" height="30" as="geometry" />
        </mxCell>
        <mxCell id="1U8vfC9J4nU1YjwcskP8-37" value="" style="endArrow=block;html=1;rounded=0;endFill=1;" parent="1" target="1U8vfC9J4nU1YjwcskP8-39" edge="1">
          <mxGeometry width="50" height="50" relative="1" as="geometry">
            <mxPoint x="190" y="470" as="sourcePoint" />
            <mxPoint x="920" y="470" as="targetPoint" />
          </mxGeometry>
        </mxCell>
        <mxCell id="1U8vfC9J4nU1YjwcskP8-38" value="View owned inscriptions (orcp token)" style="edgeLabel;html=1;align=center;verticalAlign=middle;resizable=0;points=[];" parent="1U8vfC9J4nU1YjwcskP8-37" vertex="1" connectable="0">
          <mxGeometry relative="1" as="geometry">
            <mxPoint as="offset" />
          </mxGeometry>
        </mxCell>
        <mxCell id="Cv2Ua2uzZ0oZ_ZFjQodf-4" value="" style="shape=image;verticalLabelPosition=bottom;labelBackgroundColor=default;verticalAlign=top;aspect=fixed;imageAspect=0;image=https://s2.coinmarketcap.com/static/img/coins/64x64/3408.png;" parent="1" vertex="1">
          <mxGeometry x="266" y="112" width="20" height="20" as="geometry" />
        </mxCell>
        <mxCell id="Cv2Ua2uzZ0oZ_ZFjQodf-6" value="" style="shape=image;verticalLabelPosition=bottom;labelBackgroundColor=default;verticalAlign=top;aspect=fixed;imageAspect=0;image=https://icons.iconarchive.com/icons/cjdowner/cryptocurrency-flat/256/Tether-USDT-icon.png;" parent="1" vertex="1">
          <mxGeometry x="243" y="112" width="20" height="20" as="geometry" />
        </mxCell>
        <mxCell id="Cv2Ua2uzZ0oZ_ZFjQodf-10" value="" style="shape=image;verticalLabelPosition=bottom;labelBackgroundColor=default;verticalAlign=top;aspect=fixed;imageAspect=0;image=data:image/png,iVBORw0KGgoAAAANSUhEUgAAANcAAAA2CAYAAABUZQySAAAP/ElEQVR4nO1dz08b6d3/bLrdLGp76FaKrY3HkZpjF5tIOcQMe2nBpj3saqvEsQME5dZD2ggCJN0/IG8CjhFdDnuLCBC8ZpWIHNrwo70kxjkgBRv1mAMz3siDtKlevarIblP2PQzfYZ5nfnhsjw0k85EsBc/M83yfH5/vr+c7zjs//PDDD/DgwYPrOLLfAnjw8Kbi3UZ3MJeZhyTLkEvfQJZlSFIJABAMBgAAgiBACBxHhxiBIAgICoFGi+TBQ1PwTiPcwrnMPDLZeTzJ5at+tkOMYGRowCOah0MP18glySX88cpgTYSywuREGqIY8Ujm4VDCFXLdGktjNDXuhjwGBAUBI0MDSCbONaR9Dx4ahbrIlVvN4/KfrkKSZTdlMkWHGMEXE2nPink4NKiZXLnVPD75LO62PLYICgIWHmTrJlhutbLrethiPkkuIZfLQ5JlBAUBgJo0Etsj+yzZ24uayNVIN9AJJifSdbmJp063O7a2yUQcyfNnD+wmreQ9BAUBk3+5fWDlf5NRNbk+/X3c1aRFraiHYNWQy43+GgWn3oNHsP1BVeSay8zj8pXBRspTFZ6t5Wty3XhykRtFMCOeWy6pW7AiVoeoEohXgAdN/rcBjis0JLl0oIgFAJ9+Fockl+puZ+FBFs/WVnWfPCYn0sw9kixDrmDtJLnkKJ6ze54+Fe+V2Hs6xAi+VWQs3M9i4X4Wz9ZYOSRZxlwm61iOesdRz/PNbrdRcFyh8WmTkheUetcjk52HJJUMFoU2zLVhd0kfFAIIJs4hl3/KbMgnubzBtcqt5jGaGje1FInzZyvKJsklzGWyhhiWrKmVO5fLP2X+bo+cMYwhmYgz8q9yz+hxayyNzFdfG+bYjXHQUQrv+YwMDTDt/sLHehDfKrJpuzQ3B90SOyLXrbF0U9LtQUHAs7VVw/fJxDnLJAp95zbBAECMnLHV9naJHUmWMZoaR+arr03HBNi72TTfn3wWN2xCAAYrakacyYnbmJy4bSm/2o/94b9+HFZEl+QSTp02j+ckWcblK4NMFtMpJLm0650YlSqgKvyDfAZa0S2U5FLTMoOiaB1wd9hcUzVu/e4hD9466GUgi8Vf5+VUN9dVY9urecdu9mhqHLfGWDeVt1SSVDLc4wROq2okWd7NShrn2YlXM5oaN8ynE9nslDoR/6CiIrmc+umNhmCj9SRZRs7FDKYkqxtVP/YOMcJobX5DPnyQZeIdPcnmMllDrMAnI8h9evggi8mJtIGko6lxpo1kgn2eNtqp0+2Yy8w7GuflK1cN49DLYNbHHzmFcPmK8RjAaizV7qUnOXUeHz5Q5/TZWt4QMkiyXJNSaQZs3cJmWq16kcnO15Gat09Rd4gRLNxnN4Zc+ob5W0+8oBDAyNAAs3H18Rq/+Xl3WGxXrThvVUZT41i4H9H6mJxIG6wfuWGjqXGIYsT2jI7f7A8fZLV7xXbVHRcjZ5g++EQKr9T4uaKxmMVjlWA27+Qe69uyiyX3E7aWy22rNTmRZj7JRLxqP9wKT3L5hmSSqEqfhxA4zvzNa0+xXc3e0UcfM2WyLLnM2ieCBgVB+/BIJs4ZrCSBkj2ffBbHqdPthus8wXnLrO+D1olkoGfpdSI9eDLQWGpZa7N5UWXiLKrkfkjgBmwtl5tW61vF6DvbJSpqgVk2zwnMFp02zZNcHpJUMmTMkok4IzcF/cFgAO2RM5abFTBuBqtYU2yPWCZD9mQPYOF+VvMyzBSiJMs4dbqdya7xpLBzuyslRQj8puflTJw/W9VaW80fnyFsRrKtFlhaLjcTBHaT3ogsX7UwnnOt7h5QqxuO4hm9ZQwKAYPVkGQZT3JqooMshlk8YIxR6k8nq27ibe2MzuxgXB8vGdxaLkHiBAaCcta8kXDL42kkLMlV6cD0IMKOxNUiKASw8IC1AsYznAC+mEhrgbZZppCSDM2C6oKdw8KDrMGtepLLa0qTJ0It2p/f4Dxh33ZYuoUHoX6wGkw24HUUg/th4tvTPWSBqTp9NDWubVhKx5N71SFGmPnNrVq7s3xsREkbSS4xCpCv4qc4h1cIsiyrh+QcMeySArnVPDN2qrann2rQt22Hg5p4aBQsyVXNRPClQrn8U+31h2YgmYg35CCRd43145nLzDPnNkQcqu4QxQiThdRvvPbIGYZcc199bUquy1euGo4DaJxmVQt8fGambCi24uM8tQKmZBLPlAzHBg93LTofp1FSybSiZDV/6BR2vbCOuRxmYJ6t5XczSnufyYnblpket5FMxJmAe2d705V2qXJBDz6+mstkdR8+vW60DnqZ9ZjLZJnYzOycDQAS8T0FYuaC8jKYnXcReYJCwDAevlbTbA6AvUQD3wYAXP7TVUOcOZeZb/q7fwcBdf36U9DmhcJk4lzDC307xIghk/X9i1m8f/LzqtrhN5BZHSPAVkWYZQtz+acQI2cgihHGLQRYLU9pdqtso5mGDwoCY53F9ojBvbx8ZRC5/FMIgeNYzT81tMOT+ouJNGNd1axiBEFBsPQ6HnJxKH+epy+Xor8JvLxvOuojV3D/iibNDhhfPb+B//7rcdVtOVnwDjHCZDb5Q1xJliFlrCvPeUueTMQhl75h7pdk2fZ1Fx5fTKQNtXdW/ZspIruDaKsx8C6f2B4xKAqzNoKCgET83FtFrkP5o6CTE2kDsV6/fIzvnt/AkfdPuNoXlfKYHY6qLrCxVIl//qFJ9TZZr0ru88jQAJ6trZp6CJTRrNSGmSLSj8HqIFo/hsmJtOWxybXhQVsZOsTK53VvIiwtVzAYOJCHc/oSHcLO9ib+vfZbx204iQfJKlc6lKY4kzJq5JYB1lUPWh9CANeGB5FMxLUEkFz6BkLgOIKC4Ohn5fRtAGo5EslQqX99G3QQrX/eyRgI+nFQokcIHN+tzNidSzHCJL/4pAqfGLNDs2L6emD5JrKT1/ntNCKw934On3So9T6zTNTO9ia2//kHvH6puoPvfdiLlo++tJXbg4dmwNIttCuH2S9UIhYA/OiDjmaL5cGDKSzJVUs5TDOxs72J/3v8K4ZYAPDuzz/eJ4k8eGBhSa79eLvTaW0aEcsMR1rcTWh48FArbLOFzS6OtMtYEV6/fGxJrPc+7HVbJA8eaoYtuRLnzzZFiGQibpoF5PHq+Q3brKAXb3k4SLA9RE4m4qa/COQ2Kr0vZJa4MEO1lqusKAAAv89X1XONwmhqHOFQK2LRTlfaKytKXWNbLxSxtPx3PFpaxj+W/mpou1xWmO/8fp/WH983teXm+A46KriFAdsfjXGKet7zefX8hmnigsfRKkueAOBC3yVc6LuE9UKxVvFcxaOlZRSKG660VVYUXOi7hKm7szW3QcTq7+0xXFtcXMHg8HXmc3f6HgCVSBf6LjFVG4qy5er4DgMqlj8lz5+t+XX/DjGC9siZml6IdGqtCNXWEy4urWj/vjt9D23hkOl964UiCoUNxGKdKBQ2UC4rCIdbmfun7s4iHG6F3+/D4uIK+i+qm7GsKFhcVPvx+30GjU3X/X4fwuFWy37JAhBRqH39fXz7tNELxQ1M3Z1lnjHrh2SgvhaXVvBoabmi5euOdiHa9RttjIBKSmrbrG/9vNhd088zP1dm82w3x8rWFqJdvzGsM82p3++Dz3cMhcKG1q/Z2pv1YYWK5LKqHQOMP+/Fw+6A2Qo725v47vn/4PsXM46fqcVqTU3PojvaBd+xY1hcXrG8T1G2MDUzi0JxQ3WFFAWYAfp7e7TFnZqZhX/Zp7lC/Rd7NMuhR6G4oVUWrBeKGBy+rl1rC7GLTv0yG36Z3ZCjqXGNAGVFwdT0LNKpm/D7fJo1LisKysuKKbn45/0+H0aGBtAWDjEWZnF5xZKcvmPHmA1bVhQ8WlrW/j01M2tQBnSd5iSduqn2s7SCWyldlYZunstlta22UEi7p/9ij/aMfg7uTd8xneNHS8vojnZpa0DjJ1Ab/ehR56Cwoa39enHPuymXzeeTh6PawmvDg1oNnfruVNy21qwW7Gxvai5gNcR694OPq7Za64UiyoqCcKgV4XCrqt2WrAlGuDd9B/em76AtFDIQsqwo6O/t0RaWLEd67CbuTd9Bd7QLj5aWtU1Pyoquh0Os5aoE2sRtoZAmFwBN69OGjXV1atf4OeCfLyuKJjdtwLZwyPR5wtTMLH4d/R1+Hf2dNrb0mNo3tc3LrZeX4l4AGmn+sfTXvfFw87xeLKoKbNdVpXXr7+tBeuymZnGAPQvaHe3Cvek78Pt8zBoQsfTrZoX02E2tT6eureOqeKqhcxu1WCo9jv6yeqtFk05WoS0UwuLSiq25p2t+nw/hUCvWZ4pYLxQ1rd0d7TJo6LZQSLt+se+CGnMUNtAWDqGsKMz1WKwTUzPO46NCYcMgV6UNooeibBmebwuFmM3uBG2hkKYYKKFBiQ59goPQHe3SvmsLhbBeLDLJEb/Ph8GhPWujeQs66Md5se8C1oeLmvWKdXVqc0okuth3wTA/dK0tFNLWLdZlvgaxqNqm3+/D1Mys4zmq65WTWrGzvYnvX8ziPy9m63q58Sen/4Z3P6i+IoMmlnfb9GThoc+MKVvqxqQYwwzkYhCIDPQMv5HpOsHnO2aUQZeBo+t6uSj2sxqDWfv65802ciWEQ62WLhKfTbSDfi71biIAhrC8+wwA14YGtXiJyNF/sUdbg3JZnbepu7Na7EX9MWtQwSLpM6FO0FRyvX75GP95MVuzldKj5aMvayLW4tKK5sLpkwiDw9c1q2L63PKKRipyp+yC/Vi0E7dSaVzou6RpRL9vL3FB1k9/XQ9a/NHUOGJdnYaFJ6tAbpOypWbj0mF1Y2oWeVduvorc7Hmal2pQKG5oLi6l2fUbd3DoukYWO5C868UiBoeua0TvjnbZehSKsoVbqTS6o117323tWeX1YhGjqXE1Di2y3gT1R0q2WsVSCQ19n4viqFfPb+B/l36Kf6/91hViHT35ec3VGKTFYjHV1NOnO9plq7n6+9Sgmtw9/YYxI1ks2on+3h5tA7eFQhgZGtDujcXU62VFweLyCtJjN5l2KK6g67FoJ0Nov8+nJS+mZmaxXiiiv7eHUQ7kDpkdNVg9r7dCdspDcwEVdU7WC0Vt/vw+H64NDTLW2+c7ZmiPdxtHhgfQ39ujJQ/0yQdql/cWwuFWdZ50a0PP6NeAFMfI8ADTn96DIJmt5NNkcHh2WNd/OM6D3D0A+O75DbeaZdDy0ZdNLXOibBQFyx48OEVdbiElI3ZebTo+j6oVR1pOoOVXtbmCHjzsB+pyC4+0nMDRk3/Gjxr8msfRk5/jZx//0yOWh0MF19zCaisqnOC9D3tx9OSfvddIPBxKuBpzAfWn2Y+0nMCPP+yp+mDYg4eDBtfJpcfO9iZe/+sx/vvyCXZebWJnW9K+B1QiHWkJ4sj7J/BOS9AjlIc3Cg0llwcPbzMO5e8WevBwGOCRy4OHBsEjlwcPDYJHLg8eGoT/B2jssYOwth+qAAAAAElFTkSuQmCC;" parent="1" vertex="1">
          <mxGeometry x="430" y="109" width="87.6" height="22" as="geometry" />
        </mxCell>
        <mxCell id="Cv2Ua2uzZ0oZ_ZFjQodf-11" value="" style="shape=image;verticalLabelPosition=bottom;labelBackgroundColor=default;verticalAlign=top;aspect=fixed;imageAspect=0;image=data:image/png,iVBORw0KGgoAAAANSUhEUgAAAN0AAAA4CAYAAAB5Tf0rAAAOAUlEQVR4nO2dbXBU1RnH/xcFEUhAEdkku8ubio6KWYJshm2N0s7IiiOB7UACncpq7bR2sumXrBPG2kHLpGz6ZRNp1YGmYycQYhOjKIvT9kNSl8kSwgbE+jJlhH1JFlEkIVRRy/bDvefuveeefbmbnRss5zcDJLv3ueece8//Pi/n7CIkk8kkOByOYUyZ7A5wONcaXHQcjsFw0XE4BsNFx+EYDBcdh2MwXHQcjsFw0XE4BsNFx+EYDBcdh2MwXHQcjsFw0XE4BnP9ZHdAyenwVzgeGMcXI9+i/JFZWGibjjmmq6qLHM6EEa6GDc+jI9/izR3ncDr8FZKCgCSApCBgoW06HnTPwULbDZPdRQ6nYEy66P65+zz69pyXxCbIooMg4IogAJL41jfezL0e5/+CSRPde2+P4d3dn2M08V9cAUSRQRQZ8XQpIQJJYQoe3FoMm3MmbjJdNxld5nAKguGiiw7+B8HdnyFy7EuN2K4AWFAxA1bbjXJuJ4tPEuCc0ql4aGsxFpXfcFWLz1vXhFAwLP/e/kYLzBbTJPaIc7VgaLw2NvINOn9xBkkIEAQBUwAkAUwRgOKS67H22flYsPxGAMB9jxSht+0Chg6Oq84xOvItun/3BVZvLcbqrUVGdl8XsegIYtHEZHeDcxVi6JLB+wcuiCpDEkgm5X/XPjsfT3cvlAUHAHNKrse6bbfg8VYT5piug5BMQkiKxwvJJMKHLhnZdQ6nYBi+TicGiYAgAAuWz8AzoaW4d21x2uMX2qbjV6+ZUb1trminOAeH813E2HJgkng4kbvXzs7ZtNw5Cz07PgORHXJIRenwjuRUsWgC8cgIyqwluvIsYkewO2w52+bSL73HAEAoGEaZtUR1TK625Nhcx5TpvLFoAqFgGK4aZ1r7TG3ruRekH6FgGGaLSdd90GObbbzxyEhec6Dgoht4KYGBlxMoXVGE1dstKC6dJr8nQMzfrkg/60VI8zMLv68NLc1t8u97e/yIR0bg9TQhFkldzEqHDZ6GrRkvHn0ugtlqwoZNTtR73bkOAVuq69GvKLDs7fFrJlssmkDV8o2qdnoHO1XvP1PXpDoPAPhaG2F32FS2rlonfC2NBRkT3eapc33o6gigpblNvqbeuiaYrSa097ALR7FoAi3NbejaF9DVNrHt2hfQ9NtsNcFsKcHO1saMD6fN1fXMNu0OGzwNbo3tlmqPPK5Khw3tPX7NdSNtt/f4me2yKFh4+dEbn6PdeRKDLw0DySSGj17Eq2v/hX/8Joqx4a9TBypzM+gsnBJPSXnMXIhFE9hcXa8SHAD0SzeDVfSIRRPYUl3PnJwAEIuIE8jvY7/PYkPNGtXvXfsPaY6hJ+SGTSnvQQRJCw4QJ7zSa6UjlzFtYUxQmlAwDG9dk+aaxiIJccJS1zQUDKNq+Uam4JRts64nsWX1OxZJoD8YxpZqD9PW72tjCo7Ydu0LMPvLOg/dfqrt7NeLMGHRjQxcxNtPfoS+507j0vBl0ZsB8r8fHjiPDw98AQCKnCx/TzdFcX490E8nGtZFZ3kTs9WESsor6hGeq8apaj8e0d7oI4eH1Da1KdE9U9fEPC85Z7rJRaA9LbGlx9QfDMPrYbdFIG2xrieZzEroB4zZaoKnwQ1XrfqatDS3qZZbADD7QrcbiyTQvT+gsg0Fw5p7X+mwwVXrVI05FkmkvbaAWI0m52GNtz8YRlcH+2FCk7foxuOXcdD9AQ4+8QFGjoxpvRDTK9Gv62x0Ip4ukoCnwY1T5/rQO9gphnWKi0dPklAwrJmcvcc60TvYifYeP/ZS4UT3/twuOKDOm/qDYZXYY9GEql0xfBH76fe1afq0t8cvj8nTkD3MZdmTMfUe61S9l84jKfG1NqJ3sBO9x7Tt0w8P+ny9g52o97rha2lEe08LAGm8VhP6gynbro6AypuarSZ5zHS7oudJ2fYHh1T3WWzLD19LI3a2qsPuWDR9lBCLJDTt0uILUeNNR16iG9oVw18fHsLZgTGN9xIAPPT8ApStmMX0aBPxdlOE/G3NVpMqV7A7bKqwDVBPEtrr+ah8wS49LeXjIwnN0zkd9lXlqt+VdnR4qOxjPKbuk6fBrRJwvdet6hMN/SSm7c0Wk8Y+05h8rY1y4YRlq5zEmqKE1aQ6t9mimNCSGOU+UJNZmaOy2lXex3qvG72DnTh1rg+nzvVpxks/eDOFmOTBQGzpXDnX+69bdMd3RXF8V5Tpze5YNxc/O16Bpevm4rHdt2Pd7ttQXDI1ZSzlcwKkvE4HJ96+qFrb0+vpaIEB0CTsSi9A32hWoYUWj/IJmwk6xFS2RZ9D2Uc6FK10qNtn9UkJPSaWvWuTOufMNCb6mpgtJk3IRiYx673N1fWoqtgIr6cJXR2BtJOWfp3VLhHVqXN9aYsasWgCXR0B+H1iOlBVsVGTj2aCLrSQqrFedFcvT+yKQlD4GQHA/JVF+P5vF2NWqfrTAKUrivDjg3fjolRIUXkoASDx5djINwCgFqhE5NiXeHfPeZwOf6WuXup0daw4nLzOuvD0jWZVxejX6HAqE3aHDbGI6Hm69gXk6lmm3JMOf1gPgkxld3pMrElDv6ZnTNnY2dqoqggCkjAjATn0ZFUw6WqzXvy+NnTvD+gSWC7ku61Pf3ip8GyzSqdhTdtdcP7pLo3glBQplg1E2yviH4n+Vz7FO9vjiA6qd5kcfCGBvU9HcWbwkmSTlO3vWzNTd9dZpLsRZkv2pxgdipSlETYL2iPFI9ptYyzvnKn9bNBjYlU66df0jCl7++JSgqfBnVY8pIJJQmF6jJnyLhak4kjfZ1LEyUfEE0W36KZA9DKkgmi6P/1uEhqyE4WVl8UGL+G1n5/BO88P4+Rbo/i9/UOcfGtUPk5ZEV337K2oevImXf1mJbmsPIOwMkPelY5MoR0NHWL2B4c0hQY6/M1FNJnCQXpMLOhromdMuWC2iLk1Kdz4WhuZBSC5UsgIS1mEpOoh+UOfBxDvr6+1Uc4d9ayvFpK8PJ0g5Va619mQqloKUnoGQLWv8v0DF/DO9ngq/1O8t2xtEbYdXoJlj+jf6ByiqoSAtpqmnNR0vsNaT+vuUL+md3eC8vgjh4dUoRwrHKZF4/U0aSqf6dbfAO2YWpr/rDlmomNKB9mxQkQRiybEIkiNGErSlVMl9LhZyzObq+vhrWsSP90hXUf6QelpcGt2zOj1nIVAd06nzKXyWWsTP1mQlD6oqj4X+dQBjbViBlb99BZYFRui9ULCFtemNSizlmjWbwD1zaVzm659AZSZxac0mdzpSvu54tq0RhY+XcpnhZaVjnJ070/loGRtiSy404KhocfUHwzD72uTq3/0mID88xaaeGREtYZI77KhvbZS7JWOcrQ0p94jyzPkXtDra8Q70+Pt7jikEp3fpw07jUD/NjBSQcxx/6MS0bspbKSf73r0JoyNfIPoUXVON7t0KtY8VwpLxQzd3aQxW03o2hdIu/ZU6bCpwg2zRQxFvIob2tLM3joFgLnVKht2hy1tIYcV+pBlDmUf+qn1xEqHjblbBRDH1HusU7VNLNOY6LXIiWB32FR9i0USWDLvgbTjV4a1LNt0/TZbTaplDKVdfzCMqoqNsDtsYuQzCYID8ggv6RwrX3tlTmdeMROulxfhR68swuzSqZhdOg2rnpqHp964rSCCA8TQIlMFk1VmdtU44WvNLiay5zEfWHaZ1trqve60Y6l02DQLvjTkYZINeg2vEOxsbWTuImG1TYeBO1sbM14XQOs9AW1oSjZBkMXuXDYUFBr94aXknZLyX3qQcjqBbWuumIkn3rxD70lzpnewE15Pk/yUc9U6YV9VnnFnvKvGCbPFhK79h1RPR1LadtU60ywnlACO7H1ShpiEbMWLeq8b9V63tGtmSA5t7Q5bThVNV40TdodN3m6V65jKrCZUIrMQMx1DqpehYBjdHYdkD0SEuGGTE5WO8rRLIZ4GN+yryjW2ZksJVq4qZ0YHZMOAckufclmiqyOQtoJpd9hgtmS+nkrbXCu9ur+uoWNpHwDIX5/wg1fvxfyV2T+ic3H4a/T++jSGj47jilTGfHD7Atz52M16ms8ZenOqcvfERCAFgEKR7RMFeqF303sa3FmrdIUeEyczusPLmWXTxTKIVFH8+0/ew98efw/j8ctpbY79IY79Dx/H8AC1R1O/q5x0CjU5iUeiiwCZ1uZC0ibkqoqNWDLvAWYVj1WRzAYXnLHoDi8XrZ+Pky+eUb326ZFR9PzwKBavn49lv7RgVpm4UP7vnnMI/3EYY8OXU9+JIq3xzSq9AXc+NrcQY/jOQXs3JZm8kt1hU30esKW5DUcOD2HlqnLEYwlNcYDeb8q5OtAtunvqFgAAPnn9LMbj4tasZFJcSjj1+lmcHRjF4upbkRi4iJGBMSQFQZPCld5fhKoXFhVmBN9B0lVQc6kWehrcqh0WdPWSYLZqN+Ryrg7y+pTBPXULsPovy7B4g0mzW+RS/DJO7Iri7MCoplJZXDYNj+5Zikf3LFVvDbvGiMcSqiqeq9aJvT3+nKqFrhon2ntaUCktNzCPqXWid7Cz4NVHTmGY8Pdefhq6gP7GjzE+fDn1JbGKb2omv39vxxLcXj2vML3myOT7fS+cyaNgXzb7yetnceLFiCS+lOiWrJ8Px44lhWiCw/m/oODf8Ny/7WOMxy9jZtl0LK6+NaflBA7nWmLS/wMRDudag/+nkByOwXDRcTgGw0XH4RgMFx2HYzBcdByOwXDRcTgGw0XH4RgMFx2HYzBcdByOwXDRcTgGw0XH4RgMFx2HYzD/Az0nKaQ8Nfc6AAAAAElFTkSuQmCC;" parent="1" vertex="1">
          <mxGeometry x="426.75" y="81" width="110.5" height="28" as="geometry" />
        </mxCell>
        <mxCell id="Cv2Ua2uzZ0oZ_ZFjQodf-13" value="" style="shape=image;verticalLabelPosition=bottom;labelBackgroundColor=default;verticalAlign=top;aspect=fixed;imageAspect=0;image=https://web3artblog.files.wordpress.com/2023/03/wallet-logo.png;" parent="1" vertex="1">
          <mxGeometry x="864" y="84" width="22" height="22" as="geometry" />
        </mxCell>
        <mxCell id="Cv2Ua2uzZ0oZ_ZFjQodf-15" value="" style="shape=image;verticalLabelPosition=bottom;labelBackgroundColor=default;verticalAlign=top;aspect=fixed;imageAspect=0;image=https://pbs.twimg.com/profile_images/1635946239555674112/fA12aBLU_400x400.jpg;" parent="1" vertex="1">
          <mxGeometry x="897" y="84" width="20" height="20" as="geometry" />
        </mxCell>
      </root>
    </mxGraphModel>
  </diagram>
</mxfile>
